<svg width="36" height="36" viewBox="0 0 36 36" fill="none" xmlns="http://www.w3.org/2000/svg">
<path d="M32.2954 21.7046L29.25 18.6593V14.625C29.2465 11.8371 28.2094 9.14945 26.3392 7.08185C24.469 5.01426 21.8986 3.71355 19.125 3.43125V1.125H16.875V3.43125C14.1014 3.71355 11.531 5.01426 9.66079 7.08185C7.7906 9.14945 6.75349 11.8371 6.75 14.625V18.6593L3.70462 21.7046C3.49363 21.9156 3.37506 22.2017 3.375 22.5V25.875C3.375 26.1734 3.49353 26.4595 3.7045 26.6705C3.91548 26.8815 4.20163 27 4.5 27H12.375V27.8741C12.3505 29.3013 12.8536 30.6874 13.7878 31.7667C14.7219 32.846 16.0215 33.5426 17.4375 33.723C18.2196 33.8006 19.0092 33.7136 19.7557 33.4676C20.5021 33.2217 21.1888 32.8222 21.7716 32.295C22.3544 31.7677 22.8204 31.1243 23.1396 30.4061C23.4588 29.6879 23.6241 28.9109 23.625 28.125V27H31.5C31.7984 27 32.0845 26.8815 32.2955 26.6705C32.5065 26.4595 32.625 26.1734 32.625 25.875V22.5C32.6249 22.2017 32.5064 21.9156 32.2954 21.7046ZM21.375 28.125C21.375 29.0201 21.0194 29.8786 20.3865 30.5115C19.7536 31.1444 18.8951 31.5 18 31.5C17.1049 31.5 16.2464 31.1444 15.6135 30.5115C14.9806 29.8786 14.625 29.0201 14.625 28.125V27H21.375V28.125ZM30.375 24.75H5.625V22.9657L8.67037 19.9204C8.88137 19.7094 8.99994 19.4233 9 19.125V14.625C9 12.2381 9.94821 9.94887 11.636 8.26104C13.3239 6.57321 15.6131 5.625 18 5.625C20.3869 5.625 22.6761 6.57321 24.364 8.26104C26.0518 9.94887 27 12.2381 27 14.625V19.125C27.0001 19.4233 27.1186 19.7094 27.3296 19.9204L30.375 22.9657V24.75Z" fill="#6C6B6B"/>
<ellipse cx="26.0526" cy="8.05265" rx="4.26316" ry="4.26316" fill="#FF0000"/>
</svg>
