<svg width="29" height="29" viewBox="0 0 29 29" fill="none" xmlns="http://www.w3.org/2000/svg">
<path d="M4.98438 11.7813C4.56784 11.7812 4.15538 11.8633 3.77055 12.0227C3.38572 12.1821 3.03606 12.4157 2.74152 12.7103C2.44698 13.0048 2.21335 13.3545 2.05394 13.7393C1.89454 14.1241 1.8125 14.5366 1.8125 14.9531C1.8125 15.3697 1.89454 15.7821 2.05394 16.1669C2.21335 16.5518 2.44698 16.9014 2.74152 17.196C3.03606 17.4905 3.38572 17.7242 3.77055 17.8836C4.15538 18.043 4.56784 18.125 4.98438 18.125C5.82561 18.125 6.63239 17.7908 7.22723 17.196C7.82207 16.6011 8.15625 15.7944 8.15625 14.9531C8.15625 14.1119 7.82207 13.3051 7.22723 12.7103C6.63239 12.1154 5.82561 11.7813 4.98438 11.7813ZM4.98438 13.5938C5.3449 13.5938 5.69067 13.737 5.9456 13.9919C6.20053 14.2468 6.34375 14.5926 6.34375 14.9531C6.34375 15.3137 6.20053 15.6594 5.9456 15.9143C5.69067 16.1693 5.3449 16.3125 4.98438 16.3125C4.62385 16.3125 4.27808 16.1693 4.02315 15.9143C3.76822 15.6594 3.625 15.3137 3.625 14.9531C3.625 14.5926 3.76822 14.2468 4.02315 13.9919C4.27808 13.737 4.62385 13.5938 4.98438 13.5938ZM14.5 11.7813C14.9165 11.7812 15.329 11.8633 15.7138 12.0227C16.0987 12.1821 16.4483 12.4157 16.7429 12.7103C17.0374 13.0048 17.271 13.3545 17.4304 13.7393C17.5898 14.1241 17.6719 14.5366 17.6719 14.9531C17.6719 15.3697 17.5898 15.7821 17.4304 16.1669C17.271 16.5518 17.0374 16.9014 16.7429 17.196C16.4483 17.4905 16.0987 17.7242 15.7138 17.8836C15.329 18.043 14.9165 18.125 14.5 18.125C13.6588 18.125 12.852 17.7908 12.2571 17.196C11.6623 16.6011 11.3281 15.7944 11.3281 14.9531C11.3281 14.1119 11.6623 13.3051 12.2571 12.7103C12.852 12.1154 13.6588 11.7813 14.5 11.7813ZM14.5 13.5938C14.1395 13.5938 13.7937 13.737 13.5388 13.9919C13.2838 14.2468 13.1406 14.5926 13.1406 14.9531C13.1406 15.3137 13.2838 15.6594 13.5388 15.9143C13.7937 16.1693 14.1395 16.3125 14.5 16.3125C14.8605 16.3125 15.2063 16.1693 15.4612 15.9143C15.7162 15.6594 15.8594 15.3137 15.8594 14.9531C15.8594 14.5926 15.7162 14.2468 15.4612 13.9919C15.2063 13.737 14.8605 13.5938 14.5 13.5938ZM24.0156 11.7813C24.4322 11.7812 24.8446 11.8633 25.2294 12.0227C25.6143 12.1821 25.9639 12.4157 26.2585 12.7103C26.553 13.0048 26.7867 13.3545 26.9461 13.7393C27.1055 14.1241 27.1875 14.5366 27.1875 14.9531C27.1875 15.3697 27.1055 15.7821 26.9461 16.1669C26.7867 16.5518 26.553 16.9014 26.2585 17.196C25.9639 17.4905 25.6143 17.7242 25.2294 17.8836C24.8446 18.043 24.4322 18.125 24.0156 18.125C23.1744 18.125 22.3676 17.7908 21.7728 17.196C21.1779 16.6011 20.8438 15.7944 20.8438 14.9531C20.8438 14.1119 21.1779 13.3051 21.7728 12.7103C22.3676 12.1154 23.1744 11.7813 24.0156 11.7813ZM24.0156 13.5938C23.6551 13.5938 23.3093 13.737 23.0544 13.9919C22.7995 14.2468 22.6562 14.5926 22.6562 14.9531C22.6562 15.3137 22.7995 15.6594 23.0544 15.9143C23.3093 16.1693 23.6551 16.3125 24.0156 16.3125C24.3762 16.3125 24.7219 16.1693 24.9768 15.9143C25.2318 15.6594 25.375 15.3137 25.375 14.9531C25.375 14.5926 25.2318 14.2468 24.9768 13.9919C24.7219 13.737 24.3762 13.5938 24.0156 13.5938Z" fill="#6C6B6B"/>
</svg>
