<svg width="40" height="38" viewBox="0 0 40 38" fill="none" xmlns="http://www.w3.org/2000/svg">
<path d="M12 19.95C12 19.698 12.1054 19.4564 12.2929 19.2782C12.4804 19.1001 12.7348 19 13 19C13.2652 19 13.5196 19.1001 13.7071 19.2782C13.8946 19.4564 14 19.698 14 19.95C14 20.2019 13.8946 20.4436 13.7071 20.6217C13.5196 20.7999 13.2652 20.9 13 20.9C12.7348 20.9 12.4804 20.7999 12.2929 20.6217C12.1054 20.4436 12 20.2019 12 19.95ZM13 22.8C12.7348 22.8 12.4804 22.9001 12.2929 23.0782C12.1054 23.2564 12 23.498 12 23.75C12 24.0019 12.1054 24.2436 12.2929 24.4217C12.4804 24.5999 12.7348 24.7 13 24.7C13.2652 24.7 13.5196 24.5999 13.7071 24.4217C13.8946 24.2436 14 24.0019 14 23.75C14 23.498 13.8946 23.2564 13.7071 23.0782C13.5196 22.9001 13.2652 22.8 13 22.8ZM12 27.55C12 27.298 12.1054 27.0564 12.2929 26.8782C12.4804 26.7001 12.7348 26.6 13 26.6C13.2652 26.6 13.5196 26.7001 13.7071 26.8782C13.8946 27.0564 14 27.298 14 27.55C14 27.8019 13.8946 28.0436 13.7071 28.2217C13.5196 28.3999 13.2652 28.5 13 28.5C12.7348 28.5 12.4804 28.3999 12.2929 28.2217C12.1054 28.0436 12 27.8019 12 27.55ZM17 19C16.7348 19 16.4804 19.1001 16.2929 19.2782C16.1054 19.4564 16 19.698 16 19.95C16 20.2019 16.1054 20.4436 16.2929 20.6217C16.4804 20.7999 16.7348 20.9 17 20.9H27C27.2652 20.9 27.5196 20.7999 27.7071 20.6217C27.8946 20.4436 28 20.2019 28 19.95C28 19.698 27.8946 19.4564 27.7071 19.2782C27.5196 19.1001 27.2652 19 27 19H17ZM16 23.75C16 23.498 16.1054 23.2564 16.2929 23.0782C16.4804 22.9001 16.7348 22.8 17 22.8H27C27.2652 22.8 27.5196 22.9001 27.7071 23.0782C27.8946 23.2564 28 23.498 28 23.75C28 24.0019 27.8946 24.2436 27.7071 24.4217C27.5196 24.5999 27.2652 24.7 27 24.7H17C16.7348 24.7 16.4804 24.5999 16.2929 24.4217C16.1054 24.2436 16 24.0019 16 23.75ZM17 26.6C16.7348 26.6 16.4804 26.7001 16.2929 26.8782C16.1054 27.0564 16 27.298 16 27.55C16 27.8019 16.1054 28.0436 16.2929 28.2217C16.4804 28.3999 16.7348 28.5 17 28.5H27C27.2652 28.5 27.5196 28.3999 27.7071 28.2217C27.8946 28.0436 28 27.8019 28 27.55C28 27.298 27.8946 27.0564 27.7071 26.8782C27.5196 26.7001 27.2652 26.6 27 26.6H17ZM12 3.79999C10.9391 3.79999 9.92172 4.20034 9.17157 4.91298C8.42143 5.62562 8 6.59217 8 7.59999V30.4C8 31.4078 8.42143 32.3744 9.17157 33.087C9.92172 33.7996 10.9391 34.2 12 34.2H28C29.0609 34.2 30.0783 33.7996 30.8284 33.087C31.5786 32.3744 32 31.4078 32 30.4V14.0866C31.9993 13.331 31.6828 12.6066 31.12 12.0726L23.292 4.63409C22.7296 4.10015 21.9671 3.80015 21.172 3.79999H12ZM10 7.59999C10 7.09608 10.2107 6.6128 10.5858 6.25648C10.9609 5.90017 11.4696 5.69999 12 5.69999H20V12.35C20 13.1059 20.3161 13.8308 20.8787 14.3652C21.4413 14.8997 22.2043 15.2 23 15.2H30V30.4C30 30.9039 29.7893 31.3872 29.4142 31.7435C29.0391 32.0998 28.5304 32.3 28 32.3H12C11.4696 32.3 10.9609 32.0998 10.5858 31.7435C10.2107 31.3872 10 30.9039 10 30.4V7.59999ZM29.586 13.3H23C22.7348 13.3 22.4804 13.1999 22.2929 13.0217C22.1054 12.8436 22 12.6019 22 12.35V6.09329L29.586 13.3Z" fill="#6C6B6B"/>
</svg>
