<svg width="153" height="194" viewBox="0 0 153 194" fill="none" xmlns="http://www.w3.org/2000/svg">
<path fill-rule="evenodd" clip-rule="evenodd" d="M62.1469 89.0929C62.9333 99.8254 113.595 131.423 113.891 132.31C114.022 132.704 108.766 145.16 98.1216 169.677L102.55 171.398C118.877 145.432 126.62 131.066 125.782 128.299C124.581 124.338 111.479 111.308 86.4737 89.2073L62.1469 89.0929Z" fill="#B28B67"/>
<path fill-rule="evenodd" clip-rule="evenodd" d="M99.2869 164.14L106.517 166.772C121.764 149.57 127.74 135.378 126.65 128.146C125.924 123.325 112.866 110.316 87.4779 89.1192L61.6284 89.1192C62.5103 113.974 109.468 132.405 110.096 133.464C110.724 134.523 104.543 144.896 99.2869 164.14Z" fill="#2F3676"/>
<path fill-rule="evenodd" clip-rule="evenodd" d="M96.4753 168.852C95.5723 169.912 95.0105 170.746 94.7899 171.355C94.5216 172.095 94.2533 173.222 93.9848 174.733C94.8425 175.046 102.55 177.866 117.108 183.19C118.43 181.42 118.472 180.218 117.235 179.586C115.998 178.954 114.974 178.417 114.164 177.976L105.156 169.244C104.982 169.076 104.706 169.081 104.539 169.254C104.536 169.257 104.533 169.26 104.531 169.263L103.232 170.69C101.83 170.811 100.755 170.735 100.006 170.461C99.3967 170.239 98.6452 169.685 97.751 168.8L97.751 168.8C97.4078 168.46 96.8555 168.463 96.5174 168.807C96.5028 168.821 96.4888 168.837 96.4753 168.852Z" fill="#E4E4E4"/>
<path fill-rule="evenodd" clip-rule="evenodd" d="M67.972 89.0928L45.4035 143.27L23.2222 189.072H28.4555L85.7114 89.0928H67.972Z" fill="#997659"/>
<path fill-rule="evenodd" clip-rule="evenodd" d="M22.9091 187C22.4212 188.308 22.1772 189.286 22.1772 189.935C22.1772 190.725 22.3083 191.877 22.5703 193.391C23.4827 193.391 31.6824 193.391 47.1694 193.391C47.8087 191.27 47.4397 190.125 46.0624 189.956C44.6851 189.786 43.541 189.634 42.6301 189.497L31.1966 184.381C30.9766 184.282 30.7188 184.382 30.6207 184.603C30.619 184.606 30.6174 184.61 30.6158 184.614L29.8809 186.403C28.6059 187.001 27.5698 187.299 26.7727 187.299C26.1251 187.299 25.2307 187.037 24.0895 186.512L24.0895 186.512C23.6516 186.31 23.1338 186.503 22.9331 186.943C22.9244 186.962 22.9164 186.981 22.9091 187Z" fill="#E4E4E4"/>
<path fill-rule="evenodd" clip-rule="evenodd" d="M25.2253 179.557L36.8538 181.738C45.8448 168.52 83.4728 114.323 87.5984 89.0928H61.7109C47.9336 107.332 33.7957 166.121 25.2253 179.557Z" fill="#5C63AB"/>
<path fill-rule="evenodd" clip-rule="evenodd" d="M76.037 36.3683C74.6477 33.6023 74.0166 30.4814 75.0115 27.4116C77.878 18.5667 90.0134 23.7168 91.3438 28.878C92.6742 34.0393 89.5273 45.4942 86.152 45.5098C84.8059 45.516 82.3058 44.0456 79.968 41.7144L78.6941 54.2463L68.5222 51.6931L76.037 36.3683Z" fill="#B28B67"/>
<path fill-rule="evenodd" clip-rule="evenodd" d="M91.8012 31.1562C91.8466 30.5421 91.7627 29.8264 91.7023 29.2194C91.6245 28.437 91.3978 27.6922 91.1229 26.975C90.6054 25.6247 89.9002 24.3456 89.051 23.2178C87.4998 21.1579 85.2538 19.6308 82.7509 19.3162C81.4871 19.1573 80.1809 19.3236 78.9754 19.8433C77.8862 20.3129 76.7501 21.1212 75.5459 20.8978C74.2356 20.6546 73.3332 19.2264 72.4716 18.2681C71.5001 17.1876 70.4011 16.3022 69.0927 15.7371C66.9008 14.7904 64.5645 15.0191 62.5284 16.4865C60.3617 18.0481 58.4233 20.6489 58.8727 23.5506C58.9562 24.0899 59.1173 24.5674 59.4104 25.0032C59.6792 25.4027 60.1256 25.8681 60.1422 26.403C60.1596 26.9716 59.5442 27.5451 59.2527 27.9811C58.8349 28.6057 58.4531 29.2756 58.3403 30.0401C58.1551 31.2956 58.6403 32.6601 59.2593 33.6711C59.8892 34.6998 60.798 35.4271 61.8394 35.9184C62.5348 36.2465 63.2624 36.5137 64.0191 36.6458C64.3947 36.7114 64.7455 36.6912 65.1231 36.6998C65.4902 36.7082 65.6618 36.8487 65.9098 37.1121C67.0617 38.3357 68.4505 39.0456 70.0649 39.3114C71.4275 39.5358 73.0461 39.6002 74.3606 38.9644C75.8205 38.2583 76.1415 36.8603 76.2255 35.3016C76.4902 35.5257 77.3017 35.8269 76.9499 35.11C76.8105 34.8261 76.461 34.6371 76.2418 34.4357C75.9865 34.2012 75.7384 33.9186 75.5742 33.5993C74.9111 32.3099 76.3789 30.3925 77.6296 30.3295C79.4879 30.2359 79.2729 32.7604 80.3505 33.6976C80.9701 34.2364 81.8342 33.929 82.4904 33.5583C83.3694 33.0618 84.0761 32.2892 84.7204 31.4842C85.2511 30.8213 85.7605 30.1419 86.2969 29.4844C86.5474 29.1773 87.3597 28.3355 87.1719 27.8702C88.4701 27.9353 89.7217 28.7919 90.6213 29.7291C90.9931 30.1165 91.2533 30.5061 91.367 31.054C91.3914 31.1714 91.4237 31.5103 91.5582 31.5576C91.8084 31.6456 91.7898 31.3106 91.8012 31.1562Z" fill="#191847"/>
<path fill-rule="evenodd" clip-rule="evenodd" d="M103.745 85.3074L117.479 95.7533C121.234 96.8363 124.364 98.1567 126.869 99.7144C127.458 100.269 128.161 101.384 125.685 101.15C123.208 100.916 120.593 100.781 120.236 101.619C119.879 102.458 121.363 103.495 120.651 104.622C120.177 105.374 118.032 103.43 114.215 98.7916L100.539 92.8447L103.745 85.3074ZM50.3304 84.7202L59.4428 84.9163C53.5017 102.958 50.2972 112.53 49.8295 113.632C48.7771 116.112 50.8466 119.953 51.7243 122.013C48.7272 123.29 49.1294 118.373 45.3474 120.05C41.8954 121.581 39.2404 124.418 35.3262 121.911C34.845 121.603 34.3315 120.465 35.6347 119.605C38.8814 117.464 43.5718 113.7 44.2185 112.445C45.1003 110.734 47.1376 101.493 50.3304 84.7202Z" fill="#B28B67"/>
<path fill-rule="evenodd" clip-rule="evenodd" d="M76.8911 46.978L80.6733 46.3983C94.4557 58.7161 99.8008 82.0083 116.738 94.5952L112.522 99.6329C82.833 95.4305 75.9486 67.0131 76.8911 46.978Z" fill="#E87613"/>
<path fill-rule="evenodd" clip-rule="evenodd" d="M59.6329 94.0213C74.7538 94.2872 85.8763 94.4828 93.0006 94.6081C94.5254 94.6349 94.2762 92.431 94.075 91.3176C91.753 78.4672 82.0622 64.4887 82.378 46.2602L72.7793 44.5836C64.5968 57.2309 61.571 72.9263 59.6329 94.0213Z" fill="#DDE3E9"/>
<path fill-rule="evenodd" clip-rule="evenodd" d="M60.5443 56.9426C59.1533 56.5167 58.0626 55.5613 57.272 54.0762C53.8638 47.6747 55.1948 44.2066 58.9743 43.1254C62.7537 42.0441 66.0655 44.4664 72.0556 44.5717C72.3814 44.5775 72.6794 44.6031 72.9497 44.6487L75.9599 44.8734C84.0979 74.2868 86.1439 93.8514 82.0979 103.567L55.8344 103.105C54.2155 106.702 52.6736 109.725 51.2088 112.174L44.0524 112.048C43.7557 90.2871 49.253 71.9187 60.5443 56.9426Z" fill="#FF9B21"/>
<path fill-rule="evenodd" clip-rule="evenodd" d="M61.813 88.179C62.5194 95.0956 63.775 100.128 65.58 103.278L55.8336 103.106C57.722 98.9112 59.7151 93.9354 61.813 88.179Z" fill="black" fill-opacity="0.1"/>
</svg>
