<svg width="22" height="34" viewBox="0 0 22 34" fill="none" xmlns="http://www.w3.org/2000/svg">
<path d="M11 4.2396C12.0791 4.2396 13.1341 4.55041 14.0314 5.13273C14.9287 5.71504 15.628 6.54271 16.041 7.51106C16.454 8.47941 16.562 9.54496 16.3515 10.573C16.141 11.601 15.6213 12.5452 14.8582 13.2864C14.0951 14.0275 13.1229 14.5323 12.0645 14.7367C11.006 14.9412 9.90894 14.8363 8.91192 14.4352C7.91491 14.0341 7.06274 13.3548 6.46319 12.4833C5.86364 11.6118 5.54363 10.5872 5.54363 9.53908C5.54363 8.13357 6.11849 6.78563 7.14176 5.79179C8.16502 4.79794 9.55286 4.2396 11 4.2396ZM11 2.11981C9.48915 2.11981 8.01225 2.55494 6.75604 3.37018C5.49983 4.18542 4.52073 5.34416 3.94256 6.69985C3.36439 8.05555 3.21312 9.54731 3.50787 10.9865C3.80261 12.4257 4.53015 13.7477 5.59847 14.7853C6.66678 15.8229 8.0279 16.5295 9.5097 16.8158C10.9915 17.1021 12.5274 16.9551 13.9233 16.3936C15.3191 15.832 16.5121 14.8811 17.3515 13.661C18.1909 12.4409 18.6389 11.0065 18.6389 9.53908C18.6389 7.57137 17.8341 5.68425 16.4015 4.29287C14.9689 2.90148 13.0259 2.11981 11 2.11981Z" fill="#6C6B6B"/>
<path d="M22 32.0833H19.8V26.7361C19.8 25.3179 19.2205 23.9579 18.1891 22.9551C17.1576 21.9523 15.7587 21.3889 14.3 21.3889H7.7C6.24131 21.3889 4.84236 21.9523 3.81091 22.9551C2.77946 23.9579 2.2 25.3179 2.2 26.7361V32.0833H0V26.7361C0 24.7507 0.811248 22.8465 2.25528 21.4426C3.69931 20.0387 5.65783 19.25 7.7 19.25H14.3C16.3422 19.25 18.3007 20.0387 19.7447 21.4426C21.1888 22.8465 22 24.7507 22 26.7361V32.0833Z" fill="#6C6B6B"/>
<line y1="32" x2="22" y2="32" stroke="#6C6B6B" stroke-width="2"/>
</svg>
