<svg width="36" height="36" viewBox="0 0 36 36" fill="none" xmlns="http://www.w3.org/2000/svg">
<path d="M23.5685 20.3064C23.7795 20.5174 23.898 20.8036 23.898 21.102C23.898 21.4004 23.7795 21.6866 23.5685 21.8976L18.7955 26.6705C18.789 26.677 18.7822 26.6825 18.7755 26.6887C18.7556 26.7076 18.7356 26.7266 18.7144 26.7441C18.7052 26.7515 18.6954 26.7581 18.6861 26.7652C18.6663 26.7805 18.6466 26.796 18.6256 26.8099C18.618 26.8151 18.6097 26.8193 18.6019 26.8242C18.5787 26.839 18.5555 26.8536 18.531 26.8667C18.5254 26.8698 18.519 26.8723 18.5133 26.8753C18.4866 26.889 18.4594 26.9024 18.4313 26.9139C18.4275 26.9156 18.4234 26.9167 18.4195 26.9182C18.3895 26.9305 18.3589 26.9414 18.3279 26.9511C18.3239 26.9525 18.3196 26.953 18.3157 26.9543C18.2847 26.9636 18.2532 26.9714 18.2215 26.9779C18.2123 26.9797 18.2029 26.9806 18.1938 26.9821C18.1669 26.9869 18.1399 26.9916 18.1122 26.9942C18.0376 27.0018 17.9623 27.0018 17.8876 26.9942C17.8599 26.9914 17.8329 26.9868 17.8061 26.9821C17.7969 26.9805 17.7877 26.9797 17.7787 26.9779C17.7468 26.9714 17.7153 26.9636 17.6842 26.9543C17.6802 26.953 17.6761 26.9523 17.6721 26.9511C17.6411 26.9415 17.6106 26.9306 17.5807 26.9183L17.5687 26.9141C17.5409 26.9023 17.5135 26.8893 17.4867 26.8753C17.481 26.8723 17.4748 26.8698 17.469 26.8668C17.4449 26.8535 17.4212 26.8393 17.3981 26.8242C17.3903 26.8193 17.382 26.8151 17.3742 26.8099C17.3534 26.7958 17.3337 26.7805 17.3139 26.7652C17.3046 26.7581 17.2948 26.7515 17.2858 26.7441C17.2647 26.7263 17.2442 26.7079 17.2245 26.6887C17.2178 26.6825 17.211 26.677 17.2045 26.6705L12.4315 21.8976C12.2205 21.6866 12.1019 21.4004 12.1019 21.102C12.1019 20.8036 12.2204 20.5174 12.4314 20.3064C12.6424 20.0954 12.9285 19.9768 13.2269 19.9768C13.5254 19.9768 13.8115 20.0953 14.0226 20.3062L16.875 23.1591V14.625C16.875 14.3266 16.9935 14.0405 17.2045 13.8295C17.4155 13.6185 17.7016 13.5 18 13.5C18.2984 13.5 18.5845 13.6185 18.7955 13.8295C19.0065 14.0405 19.125 14.3266 19.125 14.625V23.1591L21.9774 20.3064C22.1885 20.0955 22.4746 19.977 22.773 19.977C23.0713 19.977 23.3575 20.0955 23.5685 20.3064ZM31.5 10.125V29.25C31.4993 29.8465 31.2621 30.4184 30.8403 30.8403C30.4184 31.2621 29.8465 31.4993 29.25 31.5H6.75C6.15347 31.4993 5.58156 31.2621 5.15975 30.8403C4.73794 30.4184 4.50067 29.8465 4.5 29.25V10.125C4.50013 10.0835 4.50252 10.042 4.50717 10.0007C4.50844 9.99042 4.51055 9.9803 4.51195 9.97003C4.51617 9.93895 4.52123 9.90816 4.52813 9.87792C4.53066 9.86639 4.53389 9.85528 4.53684 9.84375C4.54726 9.80318 4.55994 9.76323 4.57481 9.72408C4.5855 9.69633 4.59722 9.66914 4.60997 9.64252C4.61306 9.63577 4.61531 9.62845 4.61883 9.62184L6.86883 5.12184C6.96226 4.93499 7.10588 4.77785 7.28359 4.66802C7.46131 4.55818 7.66609 4.50001 7.875 4.5H28.125C28.3339 4.50001 28.5387 4.55818 28.7164 4.66802C28.8941 4.77785 29.0377 4.93499 29.1312 5.12184L31.3812 9.62184C31.3845 9.62859 31.3868 9.63577 31.3902 9.64252C31.4208 9.70709 31.4452 9.77442 31.4632 9.84361C31.466 9.85514 31.4693 9.86653 31.4719 9.87806C31.4786 9.90816 31.4837 9.93867 31.488 9.96975C31.4895 9.98002 31.4916 9.99042 31.4928 10.0007C31.4975 10.042 31.4999 10.0835 31.5 10.125ZM7.44525 9H28.5548L27.4298 6.75H8.57025L7.44525 9ZM29.2514 29.25L29.25 11.25H6.75V29.25H29.2514Z" fill="#6C6B6B"/>
</svg>
